<svg xmlns="http://www.w3.org/2000/svg" xmlns:xlink="http://www.w3.org/1999/xlink" width="500" zoomAndPan="magnify" viewBox="0 0 375 374.999991" height="500" preserveAspectRatio="xMidYMid meet" version="1.0"><defs><clipPath id="896c17ef3a"><path d="M 60 1 L 315 1 L 315 373 L 60 373 Z M 60 1 " clip-rule="nonzero"/></clipPath></defs><g clip-path="url(#896c17ef3a)"><path fill="#000000" d="M 223.84375 133.34375 C 211.183594 129.734375 198.585938 139.289062 198.585938 152.464844 L 198.585938 355.195312 C 198.585938 366.515625 209.125 374.984375 220.148438 372.378906 C 274.492188 359.578125 315.066406 310.675781 315.066406 252.472656 C 315.066406 196.125 277.054688 148.507812 223.84375 133.34375 Z M 176.367188 122.589844 L 176.367188 355.195312 C 176.367188 366.515625 165.832031 374.984375 154.808594 372.378906 C 100.464844 359.585938 59.890625 310.675781 59.890625 252.472656 L 59.890625 15.546875 C 59.890625 6.65625 68.003906 -0.03125 76.730469 1.664062 C 133.433594 12.679688 176.367188 62.71875 176.367188 122.589844 Z M 176.367188 122.589844 " fill-opacity="1" fill-rule="nonzero"/></g></svg>